<svg data-v-423bf9ae="" xmlns="http://www.w3.org/2000/svg" viewBox="0 0 177.7438973567327 163" class="iconAbove"><!----><!----><!----><g data-v-423bf9ae="" id="d36b8c28-8d42-4b81-a279-25b3c5a2634b" fill="black" transform="matrix(6.097560881055492,0,0,6.097560881055492,-6.829268532827157,79.70731998719134)"><path d="M1.96 13.50L1.96 9.95C1.96 9.14 2.04 8.60 2.30 8.15C2.56 7.67 3.11 7.13 3.95 7.13C4.19 7.13 4.44 7.17 4.65 7.22L4.82 6.43C4.58 6.36 4.27 6.30 4.02 6.30C2.86 6.30 2.14 7.11 1.96 7.94L1.96 6.51L1.12 6.51L1.12 13.50ZM9.30 13.44L9.11 12.73C8.92 12.81 8.57 12.89 8.22 12.89C7.70 12.89 7.43 12.67 7.32 12.32C7.25 12.08 7.24 11.70 7.24 11.20L7.24 7.24L9.02 7.24L9.02 6.51L7.24 6.51L7.24 4.62L6.38 4.62L6.38 6.51L5.29 6.51L5.29 7.24L6.38 7.24L6.38 11.27C6.38 11.84 6.40 12.26 6.51 12.68C6.71 13.38 7.32 13.66 8.02 13.66C8.54 13.66 8.99 13.57 9.30 13.44ZM11.27 13.50L11.27 6.51L10.43 6.51L10.43 13.50ZM11.33 5.11L11.33 3.82L10.37 3.82L10.37 5.11ZM19.56 11.17L18.72 11.02C18.58 12.03 17.72 12.87 16.42 12.87C15.27 12.87 13.83 12.15 13.83 9.94C13.83 8.05 15.04 7.13 16.41 7.13C18.00 7.13 18.54 8.22 18.66 9.06L19.52 8.90C19.35 7.39 18.24 6.33 16.42 6.33C14.49 6.33 12.95 7.67 12.95 9.97C12.95 12.29 14.35 13.66 16.37 13.66C18.17 13.66 19.32 12.60 19.56 11.17ZM21.95 13.50L21.95 3.82L21.11 3.82L21.11 13.50ZM30.24 11.38L29.41 11.20C29.16 12.15 28.32 12.88 27.06 12.88C26.03 12.88 24.54 12.32 24.53 10.19L30.27 10.19C30.27 7.62 29.05 6.33 26.99 6.33C25.13 6.33 23.63 7.71 23.63 9.97C23.63 12.19 24.86 13.66 27.03 13.66C28.74 13.66 29.90 12.71 30.24 11.38ZM24.53 9.51C24.67 7.91 25.73 7.11 26.98 7.11C28.64 7.11 29.27 8.19 29.37 9.51Z"></path></g><!----><g data-v-423bf9ae="" id="b714e3dc-077c-4f9e-a290-6e82908d2082" transform="matrix(2.8125,0,0,2.8125,44,0)" stroke="none" fill="black"><path d="M16 32c8.837 0 16-7.163 16-16S24.837 0 16 0 0 7.163 0 16s7.163 16 16 16zM14.817 6.421h2v8.886h8.887v2H14.817V6.421zm-5.959.437h2v14.283h14.283v2H8.858V6.858z"></path></g><!----></svg>