<svg data-v-fde0c5aa="" xmlns="http://www.w3.org/2000/svg" viewBox="0 0 300 300" class="iconAbove"><!----><defs data-v-fde0c5aa=""><!----></defs><rect data-v-fde0c5aa="" fill="transparent" x="0" y="0" width="300px" height="300px" class="logo-background-square"></rect><defs data-v-fde0c5aa=""><!----></defs><g data-v-fde0c5aa="" id="a804f180-623d-41b0-8132-282aebf5f5e5" fill="#000000" transform="matrix(6.842818322073386,0,0,6.842818322073386,42.601967707593126,166.52710113315374)"><path d="M1.96 13.50L1.96 9.95C1.96 9.14 2.04 8.60 2.30 8.15C2.56 7.67 3.11 7.13 3.95 7.13C4.19 7.13 4.44 7.17 4.65 7.22L4.82 6.43C4.58 6.36 4.27 6.30 4.02 6.30C2.86 6.30 2.14 7.11 1.96 7.94L1.96 6.51L1.12 6.51L1.12 13.50ZM9.30 13.44L9.11 12.73C8.92 12.81 8.57 12.89 8.22 12.89C7.70 12.89 7.43 12.67 7.32 12.32C7.25 12.08 7.24 11.70 7.24 11.20L7.24 7.24L9.02 7.24L9.02 6.51L7.24 6.51L7.24 4.62L6.38 4.62L6.38 6.51L5.29 6.51L5.29 7.24L6.38 7.24L6.38 11.27C6.38 11.84 6.40 12.26 6.51 12.68C6.71 13.38 7.32 13.66 8.02 13.66C8.54 13.66 8.99 13.57 9.30 13.44ZM11.27 13.50L11.27 6.51L10.43 6.51L10.43 13.50ZM11.33 5.11L11.33 3.82L10.37 3.82L10.37 5.11ZM19.56 11.17L18.72 11.02C18.58 12.03 17.72 12.87 16.42 12.87C15.27 12.87 13.83 12.15 13.83 9.94C13.83 8.05 15.04 7.13 16.41 7.13C18.00 7.13 18.54 8.22 18.66 9.06L19.52 8.90C19.35 7.39 18.24 6.33 16.42 6.33C14.49 6.33 12.95 7.67 12.95 9.97C12.95 12.29 14.35 13.66 16.37 13.66C18.17 13.66 19.32 12.60 19.56 11.17ZM21.95 13.50L21.95 3.82L21.11 3.82L21.11 13.50ZM30.24 11.38L29.41 11.20C29.16 12.15 28.32 12.88 27.06 12.88C26.03 12.88 24.54 12.32 24.53 10.19L30.27 10.19C30.27 7.62 29.05 6.33 26.99 6.33C25.13 6.33 23.63 7.71 23.63 9.97C23.63 12.19 24.86 13.66 27.03 13.66C28.74 13.66 29.90 12.71 30.24 11.38ZM24.53 9.51C24.67 7.91 25.73 7.11 26.98 7.11C28.64 7.11 29.27 8.19 29.37 9.51Z"></path></g><defs data-v-fde0c5aa=""><linearGradient data-v-fde0c5aa="" gradientTransform="rotate(25)" id="449fc3af-665f-4922-adff-44282a8a4ebd" x1="0%" y1="0%" x2="100%" y2="0%"><stop data-v-fde0c5aa="" offset="0%" stop-color="#41E296" stop-opacity="1"></stop><stop data-v-fde0c5aa="" offset="100%" stop-color="#00C4EE" stop-opacity="1"></stop></linearGradient></defs><g data-v-fde0c5aa="" id="6a85a5d1-acd0-4e5a-99e8-a83d8db82090" stroke="none" fill="url(#449fc3af-665f-4922-adff-44282a8a4ebd)" transform="matrix(4.208333333333333,0,0,4.208333333333333,82.66666666666667,40)"><path d="M16 32c8.837 0 16-7.163 16-16S24.837 0 16 0 0 7.163 0 16s7.163 16 16 16zM14.817 6.421h2v8.886h8.887v2H14.817V6.421zm-5.959.437h2v14.283h14.283v2H8.858V6.858z"></path></g><!----></svg>